/* XPM */
static char *bitcoin32_xpm[] = {
/* width height num_colors chars_per_pixel */
"    32    32      256            2",
/* colors */
"`` c #ffffff",
"`. c #d6d4e6",
"`# c #aaa4cb",
"`a c #8b83b8",
"`b c #6d63a6",
"`c c #6358a1",
"`d c #a9a3cb",
"`e c #f3f2f7",
"`f c #695ea4",
"`g c #4e4294",
"`h c #b6b1d2",
"`i c #5c519c",
"`j c #b5b0d2",
"`k c #8078b2",
"`l c #7f77b2",
"`m c #eceaf3",
"`n c #665ca3",
"`o c #655ba2",
"`p c #f4f3f8",
"`q c #6258a0",
"`r c #4f4293",
"`s c #504392",
"`t c #d6d3e6",
"`u c #766dac",
"`v c #504393",
"`w c #4d4195",
"`x c #605fb4",
"`y c #8185ce",
"`z c #9397d6",
"`A c #989cd8",
"`B c #9699d6",
"`C c #9e9dd0",
"`D c #a39fcc",
"`E c #a49fcb",
"`F c #a8a2c9",
"`G c #a7a1ca",
"`H c #a6a0c9",
"`I c #948cbe",
"`J c #bbb7d6",
"`K c #fefefe",
"`L c #ada7cd",
"`M c #4f4294",
"`N c #514392",
"`O c #7e7fc6",
"`P c #d8d8ee",
"`Q c #f0eff6",
"`R c #554fa2",
"`S c #c6c8e9",
"`T c #ffe3bf",
"`U c #ffd299",
"`V c #ffe3bd",
"`W c #fefaf6",
"`X c #bab6d7",
"`Y c #bab6d5",
"`Z c #bab5d5",
"`0 c #b8b4d4",
"`1 c #9b94c2",
"`2 c #534da1",
"`3 c #e8e7f1",
"`4 c #ffc882",
"`5 c #f4902d",
"`6 c #ef841b",
"`7 c #f0851a",
"`8 c #f5912b",
".` c #ffc486",
".. c #fffdfc",
".# c #c0c2e7",
".a c #9a93c2",
".b c #f8f8fb",
".c c #544998",
".d c #d1d3ee",
".e c #fff5e6",
".f c #f89d3e",
".g c #ee841c",
".h c #ee841b",
".i c #f99d3a",
".j c #fef3e6",
".k c #d3d3ec",
".l c #544897",
".m c #c5c1dc",
".n c #8788c9",
".o c #fefcf9",
".p c #f79734",
".q c #fd9a2e",
".r c #fffbf8",
".s c #8c8ac7",
".t c #c4c0db",
".u c #968fbf",
".v c #4d4295",
".w c #eeeef7",
".x c #ffc376",
".y c #f4ab61",
".z c #f8c899",
".A c #f8c99b",
".B c #f8ca9d",
".C c #f8cda1",
".D c #f29b45",
".E c #ffc473",
".F c #efeff8",
".G c #4f4496",
".H c #948dbe",
".I c #776ead",
".J c #6c6bba",
".K c #fffaf4",
".L c #f4871b",
".M c #f9d5b1",
".N c #f39e4a",
".O c #fb8a12",
".P c #fdf9f4",
".Q c #756fb3",
".R c #645aa1",
".S c #8e93d5",
".T c #ffdcae",
".U c #f9cea3",
".V c #f5b270",
".W c #f39d48",
".X c #f6bb80",
".Y c #fad7b4",
".Z c #f98814",
".0 c #f9d6b4",
".1 c #9d9acb",
".2 c #6459a1",
".3 c #4f4394",
".4 c #acaedd",
".5 c #ffcc8d",
".6 c #f8cb9e",
".7 c #fce9d6",
".8 c #fbe4cc",
"#` c #fcecdc",
"#. c #f5b06a",
"## c #ffcd89",
"#a c #aeb0dd",
"#b c #5b509c",
"#c c #ffcc8c",
"#d c #fdeee0",
"#e c #fcebda",
"#f c #fcead9",
"#g c #fdf1e4",
"#h c #f5ae68",
"#i c #afb0de",
"#j c #9094d6",
"#k c #ffdbac",
"#l c #f5b16e",
"#m c #f29a41",
"#n c #f2993f",
"#o c #f6bb7f",
"#p c #f9d6b3",
"#q c #9f9ccc",
"#r c #6d6cba",
"#s c #fff9f3",
"#t c #f48619",
"#u c #f3a14e",
"#v c #fdf8f3",
"#w c #7772b4",
"#x c #766cac",
"#y c #4e4396",
"#z c #f0f0f8",
"#A c #ffc071",
"#B c #f4ad65",
"#C c #f8cc9f",
"#D c #f9cfa6",
"#E c #f9d0a7",
"#F c #f39f4c",
"#G c #ffc16d",
"#H c #f1f2f9",
"#I c #938cbd",
"#J c #c3bfda",
"#K c #8a8ccb",
"#L c #fffbf7",
"#M c #fd992b",
"#N c #fd992a",
"#O c #fffbf6",
"#P c #908fca",
"#Q c #c1bdda",
"#R c #f8f7fa",
"#S c #534797",
"#T c #d6d7ee",
"#U c #fff2e4",
"#V c #fd9d34",
"#W c #ef851a",
"#X c #ff9e31",
"#Y c #fef2e3",
"#Z c #d9d9ef",
"#0 c #524796",
"#1 c #f6f6f9",
"#2 c #9790c0",
"#3 c #c3c5e7",
"#4 c #ffc57b",
"#5 c #f89025",
"#6 c #fa8913",
"#7 c #fa8912",
"#8 c #fd911f",
"a` c #ffc479",
"a. c #fefcfa",
"a# c #e8e8f5",
"aa c #5e539d",
"ab c #958ebf",
"ac c #f1f0f7",
"ad c #b1abd0",
"ae c #b4afd2",
"af c #a09ac5",
"ag c #b9b4d4",
"ah c #fdfdfe",
"ai c #fef8f2",
"aj c #f8dabe",
"ak c #f5c99e",
"al c #fadbbe",
"am c #cecee8",
"an c #60559e",
"ao c #dedef0",
"ap c #8e8ac3",
"aq c #bebad7",
"ar c #9892c1",
"as c #b1acd0",
"at c #b0abcf",
"au c #b1abcf",
"av c #aeaad1",
"aw c #aca9d3",
"ax c #aaa8d4",
"ay c #abaad6",
"az c #a9a6d2",
"aA c #9490c5",
"aB c #6d68b0",
"aC c #4d4294",
"aD c #7067a8",
"aE c #d3d0e4",
"aF c #4f4393",
"aG c #60569f",
"aH c #f1f0f6",
"aI c #eae9f2",
"aJ c #6257a0",
"aK c #eae8f2",
"aL c #efeef5",
"aM c #7c73b0",
"aN c #7b72af",
"aO c #eeedf4",
"aP c #594e9b",
"aQ c #594d9a",
"aR c #afaacf",
"aS c #a59fc8",
"aT c #d1cee3",
"aU c #837bb4",
"aV c #685ea3",
"aW c #d0cde2",
"aX c #000000",
"aY c #000000",
"aZ c #000000",
"a0 c #000000",
"a1 c #000000",
"a2 c #000000",
"a3 c #000000",
"a4 c #000000",
"a5 c #000000",
"a6 c #000000",
"a7 c #000000",
"a8 c #000000",
/* pixels */
"```````````````````````.`#`a`b`c`c`b`a`d`.``````````````````````",
"`````````````````e`#`f`g`g`g`g`g`g`g`g`g`g`f`#`e````````````````",
"```````````````h`i`g`g`g`g`g`g`g`g`g`g`g`g`g`g`i`j``````````````",
"```````````e`k`g`g`g`g`g`g`g`g`g`g`g`g`g`g`g`g`g`g`l`e``````````",
"`````````m`n`g`g`g`g`g`g`g`g`g`g`g`g`g`g`g`g`g`g`g`g`o`m````````",
"```````p`q`g`g`g`g`g`g`g`g`g`r`s`s`r`g`g`g`g`g`g`g`g`g`g`t``````",
"```````u`g`g`g`g`g`g`g`v`w`x`y`z`A`B`C`D`E`F`G`H`H`H`G`I`J`K````",
"`````L`g`g`g`g`g`g`M`N`O`P``````````````````````````````````````",
"```Q`g`g`g`g`g`g`N`R`S```````T`U`U`V`W```````X`H`Y`Z`Z`Z`0`j`e``",
"```1`g`g`g`g`g`g`2`3`````4`5`6`7`7`6`8.`..``.#`M`g`g`g`g`g`g.a``",
".b.c`g`g`g`g`g`N.d``.e.f.g`7`7`7`7`7`7.h.i.j``.k`N`g`g`g`g`g.l.b",
".m`g`g`g`g`g`v.n``.o.p`7`7`7`7`7`7`7`7`7.g.q.r``.s`M`g`g`g`g`g.t",
".u`g`g`g`g`g.v.w``.x.g`7.y.z.A.B.C.z.D`7`7.g.E``.F.G`g`g`g`g`g.H",
".I`g`g`g`g`g.J``.K.L`7`7.M```````````K.N`7`7.O.P``.Q`g`g`g`g`g`u",
".R`g`g`g`g`v.S``.T.h`7`7.U``.V.W.D.X``.Y`7`7.Z.0``.1`g`g`g`g`g.2",
"`i`g`g`g`g.3.4``.5`7`7`7.6``.7.8.8#```#.`7`7.h##``#a`g`g`g`g`g`i",
"#b`g`g`g`g.3.4``#c`7`7`7.6``#d#e#f#g``#h`7`7.h##``#i`g`g`g`g`g`i",
".2`g`g`g`g`v#j``#k.h`7`7.U``#l#m#n#o``.Y`7`7.Z#p``#q`g`g`g`g`g`c",
".I`g`g`g`g`g#r``#s#t`7`7.M````````````#u`7`7.O#v``#w`g`g`g`g`g#x",
".H`g`g`g`g`g#y#z``#A.g`7#B#C.U#D#E.6#F`7`7.g#G``#H.G`g`g`g`g`g#I",
"#J`g`g`g`g`g`v#K``#L#M.g`7`7`7`7`7`7`7`7.g#N#O``#P`M`g`g`g`g`g#Q",
"#R#S`g`g`g`g`g`N#T``#U#V.g`7`7`7`7`7#W`7#X#Y``#Z`N`g`g`g`g`g#0#1",
"``#2`g`g`g`g`g`M`M#3``.r#4#5#6#7#6.Z#8a`a.``a#aa`g`g`g`g`g`gab``",
"``acadae`j`j`j`hafagah````aiajakakal.o````aman`g`g`g`g`g`g`g`m``",
"``````````````````````````````````````aoap`r`M`g`g`g`g`g`g`G````",
"`````KaqarasatatatadadauavawaxayazaAaBaC`g`g`g`g`g`g`g`gaD``````",
"``````aE`g`g`g`g`g`g`g`g`g`gaF`s`r`g`g`g`g`g`g`g`g`g`gaGaH``````",
"````````aIaJ`g`g`g`g`g`g`g`g`g`g`g`g`g`g`g`g`g`g`g`g`qaK````````",
"``````````aLaM`g`g`g`g`g`g`g`g`g`g`g`g`g`g`g`g`g`gaNaO``````````",
"``````````````ataP`g`g`g`g`g`g`g`g`g`g`g`g`g`gaQaR``````````````",
"`````````````````Q`H.R`g`g`g`g`g`g`g`g`g`g.2aSaL````````````````",
"````````````````````ahaT`HaUaVaJaJaVaUaSaWah````````````````````"
};
