/* XPM */
static char *bitcoin64_xpm[] = {
/* width height num_colors chars_per_pixel */
"    64    64      256            2",
/* colors */
"`` c #4c4294",
"`. c #a4a2cc",
"`# c #d4d2e4",
"`a c #f4861c",
"`b c #f4a24c",
"`c c #fcead4",
"`d c #7c72ac",
"`e c #fcd2a4",
"`f c #d4cee4",
"`g c #645aa4",
"`h c #bcbad4",
"`i c #f4b67c",
"`j c #f4f6fc",
"`k c #8c8abc",
"`l c #a49ac4",
"`m c #fcdec4",
"`n c #b4aed4",
"`o c #f49634",
"`p c #6c66a4",
"`q c #5c4e9c",
"`r c #dcdeec",
"`s c #eceaf4",
"`t c #f4b26c",
"`u c #f4c28c",
"`v c #8c82bc",
"`w c #ccc6dc",
"`x c #9c96c4",
"`y c #b4aacc",
"`z c #f4aa5c",
"`A c #fcdab4",
"`B c #f49e44",
"`C c #7c6eac",
"`D c #847ab4",
"`E c #f4be84",
"`F c #fcfefc",
"`G c #9c92c4",
"`H c #fce6cc",
"`I c #746eac",
"`J c #5c569c",
"`K c #e4e6ec",
"`L c #f4f2f4",
"`M c #544a94",
"`N c #acaacc",
"`O c #dcdaec",
"`P c #f4922c",
"`Q c #f4a65c",
"`R c #fcf2e4",
"`S c #8476b4",
"`T c #fcd6b4",
"`U c #f4ca9c",
"`V c #6c62a4",
"`W c #c4c2dc",
"`X c #fcf6ec",
"`Y c #948abc",
"`Z c #bcb6d4",
"`0 c #f49a44",
"`1 c #7466ac",
"`2 c #aca2cc",
"`3 c #dcd6e4",
"`4 c #f4a654",
"`5 c #fceee4",
"`6 c #7c76b4",
"`7 c #fcd6ac",
"`8 c #6c5ea4",
".` c #c4bedc",
".. c #f4ba7c",
".# c #a49ec4",
".a c #fce2c4",
".b c #bcb2d4",
".c c #f49a3c",
".d c #e4deec",
".e c #f4eef4",
".f c #f4c694",
".g c #cccee4",
".h c #64569c",
".i c #fcca9c",
".j c #fcfafc",
".k c #948ebc",
".l c #544694",
".m c #f48a24",
".n c #f4a254",
".o c #fceedc",
".p c #7c72b4",
".q c #fcd2ac",
".r c #645ea4",
".s c #bcbadc",
".t c #b4b2d4",
".u c #f4963c",
".v c #6c66ac",
".w c #5c529c",
".x c #eceef4",
".y c #f4b274",
".z c #f4c294",
".A c #8c86bc",
".B c #cccae4",
".C c #9c9ac4",
".D c #b4aad4",
".E c #f4aa64",
".F c #fcdabc",
".G c #f49e4c",
".H c #f4be8c",
".I c #fce6d4",
".J c #e4e6f4",
".K c #f4f2fc",
".L c #544a9c",
".M c #f49234",
".N c #fcfaf4",
".O c #746aac",
".P c #aca6cc",
".Q c #dcd6ec",
".R c #f4ba84",
".S c #a49ecc",
".T c #fce2cc",
".U c #e4e2ec",
".V c #6456a4",
".W c #fccea4",
".X c #948ec4",
".Y c #000000",
".Z c #000000",
".0 c #000000",
".1 c #000000",
".2 c #000000",
".3 c #000000",
".4 c #000000",
".5 c #000000",
".6 c #000000",
".7 c #000000",
".8 c #000000",
"#` c #000000",
"#. c #000000",
"## c #000000",
"#a c #000000",
"#b c #000000",
"#c c #000000",
"#d c #000000",
"#e c #000000",
"#f c #000000",
"#g c #000000",
"#h c #000000",
"#i c #000000",
"#j c #000000",
"#k c #000000",
"#l c #000000",
"#m c #000000",
"#n c #000000",
"#o c #000000",
"#p c #000000",
"#q c #000000",
"#r c #000000",
"#s c #000000",
"#t c #000000",
"#u c #000000",
"#v c #000000",
"#w c #000000",
"#x c #000000",
"#y c #000000",
"#z c #000000",
"#A c #000000",
"#B c #000000",
"#C c #000000",
"#D c #000000",
"#E c #000000",
"#F c #000000",
"#G c #000000",
"#H c #000000",
"#I c #000000",
"#J c #000000",
"#K c #000000",
"#L c #000000",
"#M c #000000",
"#N c #000000",
"#O c #000000",
"#P c #000000",
"#Q c #000000",
"#R c #000000",
"#S c #000000",
"#T c #000000",
"#U c #000000",
"#V c #000000",
"#W c #000000",
"#X c #000000",
"#Y c #000000",
"#Z c #000000",
"#0 c #000000",
"#1 c #000000",
"#2 c #000000",
"#3 c #000000",
"#4 c #000000",
"#5 c #000000",
"#6 c #000000",
"#7 c #000000",
"#8 c #000000",
"a` c #000000",
"a. c #000000",
"a# c #000000",
"aa c #000000",
"ab c #000000",
"ac c #000000",
"ad c #000000",
"ae c #000000",
"af c #000000",
"ag c #000000",
"ah c #000000",
"ai c #000000",
"aj c #000000",
"ak c #000000",
"al c #000000",
"am c #000000",
"an c #000000",
"ao c #000000",
"ap c #000000",
"aq c #000000",
"ar c #000000",
"as c #000000",
"at c #000000",
"au c #000000",
"av c #000000",
"aw c #000000",
"ax c #000000",
"ay c #000000",
"az c #000000",
"aA c #000000",
"aB c #000000",
"aC c #000000",
"aD c #000000",
"aE c #000000",
"aF c #000000",
"aG c #000000",
"aH c #000000",
"aI c #000000",
"aJ c #000000",
"aK c #000000",
"aL c #000000",
"aM c #000000",
"aN c #000000",
"aO c #000000",
"aP c #000000",
"aQ c #000000",
"aR c #000000",
"aS c #000000",
"aT c #000000",
"aU c #000000",
"aV c #000000",
"aW c #000000",
"aX c #000000",
"aY c #000000",
"aZ c #000000",
"a0 c #000000",
"a1 c #000000",
"a2 c #000000",
"a3 c #000000",
"a4 c #000000",
"a5 c #000000",
"a6 c #000000",
"a7 c #000000",
"a8 c #000000",
/* pixels */
"`F`F`F`F`F`F`F`F`F`F`F`F`F`F`F`F`F`F`F`F`F`F`F`F`F.x`f`n`k`d.O`p`1.O`d`k`n`f.x`F`F`F`F`F`F`F`F`F`F`F`F`F`F`F`F`F`F`F`F`F`F`F`F`F",
"`F`F`F`F`F`F`F`F`F`F`F`F`F`F`F`F`F`F`F`F`F.j.B`x.O.l````.l````````````.l````.l`1`x`w.j`F`F`F`F`F`F`F`F`F`F`F`F`F`F`F`F`F`F`F`F`F",
"`F`F`F`F`F`F`F`F`F`F`F`F`F`F`F`F`F`F`F.Q`G`J``.l````.l``````.l``.l``````````````````.V`G`3`F`F`F`F`F`F`F`F`F`F`F`F`F`F`F`F`F`F`F",
"`F`F`F`F`F`F`F`F`F`F`F`F`F`F`F`F`F`f`6````.l``````````````````````````````.l``.l```````````D.B`F`F`F`F`F`F`F`F`F`F`F`F`F`F`F`F`F",
"`F`F`F`F`F`F`F`F`F`F`F`F`F`F`F`O`D``.l````````````````````````````````````````````.l``.l````.l`S`O`F`F`F`F`F`F`F`F`F`F`F`F`F`F`F",
"`F`F`F`F`F`F`F`F`F`F`F`F`F`F.S.l``````.l``````````````````````````````.l``````````````````````````.S`F`F`F`F`F`F`F`F`F`F`F`F`F`F",
"`F`F`F`F`F`F`F`F`F`F`F`F.U.O``````.l``````````````.l``.l``.l``.l``.l````````.l``````````````.l````.l`1.U`F`F`F`F`F`F`F`F`F`F`F`F",
"`F`F`F`F`F`F`F`F`F`F`F`w.l``.l````````````````.l````````````````````.l``.l````````.l``````````````````.l`W`F`F`F`F`F`F`F`F`F`F`F",
"`F`F`F`F`F`F`F`F`F`F.D````````````````````````````.l``.l``.l``.l````````````.l````````.l````````````.l````.D`F`F`F`F`F`F`F`F`F`F",
"`F`F`F`F`F`F`F`F`F`2````.l``````````````.l``.l``````````````````.l``.l``.l````.l``.l``````.l````````````.l``.S`F`F`F`F`F`F`F`F`F",
"`F`F`F`F`F`F`F`F.P````````````````.l``````````.l``.l``.l``.l``````````````````````````.l````.l``.l``````````.l`2`F`F`F`F`F`F`F`F",
"`F`F`F`F`F`F`F.```.l``.l````````.l````.l``.l````````````````````````````````````````````.l``````````````````````.D`F`F`F`F`F`F`F",
"`F`F`F`F`F`F.d````````````````.l````````````.l``````````````.l.l`q`q.l`q`q.l`q`q`q.l`q`q.l`q`q`q`q`q`q`q`q`q`q`q```#`F`F`F`F`F`F",
"`F`F`F`F`F.j.w``.l````````````````.l``.l`````````````1`l.`.Q.d.e.K.e.K.e.e.K.e.e.e.K.e.e.K.e.e.e.e.K`5.K.K`L.K`L`s`s`F`F`F`F`F`F",
"`F`F`F`F`F.A.l````````````.l``.l```````````````q`l.d.j.j.j`F`F`F`F`F`F`F`F`F`F`F`F`F`F`F`F`F`F`F`F`F`F`F`F`F`F`F`F`F`F`F`F`F`F`F",
"`F`F`F`F`#``````````````.l````````.l`````````l.e.j.j`F`F`F`F`F`F`F`F`F`F`F`F`F`F`F`F`F`F`F`F`F`F`F`F`F`F`F`F`F`F`F`F`F`F`F`F`F`F",
"`F`F`F`F`8``.l````````.l````.l```````````1.Q.j`F`F`F`F`F`F`F`F`F`F`F`F`F`F`F`F`F`F`F`F`F`j`F`F`F`F`F`F`F`F`F`F`F`F`F`F`F`F`F`F`F",
"`F`F`F`Z````````````.l````````.l```````Y.j`F`F`F`F`F`F`R.q...E`b.n.E..`e`5`F`F`F`F`F`F`F`y.V`I`C.p`C`d`C.p`C`d`C.p`C`I.O`W`F`F`F",
"`F`F`F.V````````````````.l```````````l.j`F`F`F`F`F.F`z`a`a`a`a`a`a`a`a`a`a`z.F`F`F`F`F`F`j`Y``````````````````````````.l`q`F`F`F",
"`F`F.```.l``````.l``.l``````.l`````Y.j`F`F`F`F`c`Q`a`a`a`a`a`a`a`a`a`a`a`a`a`a`4.I`F`F`F`F`F`G``````````````````.l````````.``F`F",
"`F`F.O``````````````````.l```````1.j`F`F`F`F.W`a`a`a`a`a`a`a`a`a`a`a`a`a`a`a`a`a`a`U`F`F`F`F`F`C``.l``.l``.l````````.l``.l`1`F`F",
"`F.U.l``.l``````.l``.l````````.l.e`F`F`F`F.i`a`a`a`a`a`a`a`a`a`a`a`a`a`a`a`a`a`a`a`a.z`F`F`F`F.K.l``````````````````````````.U`F",
"`F`2``````````````````````````.D.j`F`F`F.W`a`a`a`a`a`a`a`a`a`a`a`a`a`a`a`a`a`a`a`a`a`a`U`F`F`F`F.t```````````````````````````2`F",
"`F`I.l````````.l``.l````````.V.j`F`F`F`c`a`a`a`a`a`a`a`a`a`a`a`a`a`a`a`a`a`a`a`a`a`a`a`a.I`F`F`F`F`8````````````.l```````````C`F",
".K.l``````````````````````.l.b.j`F`F`F`0`a`a`a`a`a.m`P.m`P.m`P.m`P.m`P`a`a`a`a`a`a`a`a`a`o`F`F`F`F`Z``````.l````````.l````````.e",
"`w``````````.l``.l````````.l.K`F`F`F.q`a`a`a`a`a.M`j`j`j`j`j`j`j`j`j`j`L`U.m`a`a`a`a`a`a`a`U`F`F`F.j`q``````.l``.l````.l```````w",
".P``.l`````````````````````v.j`F`F`F.c`a`a`a`a`a.u`F`F`F`F`F`F`F`F`F`F`F`F`L.m`a`a`a`a`a`a.u`F`F`F`F`v``````````````````.l`````2",
"`Y````````.l``.l``````````.b`F`F`F.I`a`a`a`a`a`a`o`F`F`F`F`F`F`F`F`F`F`F`F`F`A`a`a`a`a`a`a`a`H`F`F`F`Z.l````.l``.l``.l`````````v",
"`6``````````````````````.l.Q`F`F`F`u`a`a`a`a`a`a`o`F`F`F.F..`E`E`E`E..`c`F`F`F`P`a`a`a`a`a`a`E`F`F`F`O``````````````````.l``.l`C",
"`V````````.l``.l````````.l.e`F`F`F.E`a`a`a`a`a`a.u`F`F`F`Q`a`a`a`a`a`a..`F`F`F`0`a`a`a`a`a`a`Q`F`F`F.j.l.l````.l```````````````8",
".h```````````````````````8.j`F`F`F`B`a`a`a`a`a`a.M`F`F`F`c.q.F`A`T`T.F`X`F`F.j.m`a`a`a`a`a`a.u`F`F`F`F`V````````.l``````````.l`q",
".w.l````.l``.l````````.l`1.j`F`F`F.u`a`a`a`a`a`a`o`F`F`F`F`F`F`F`F`F`F`F`F`F`E`a`a`a`a`a`a`a`P`F`F`F`F`1.l``````````````````.l`q",
".w```````````````````````1.j`F`F`F`o`a`a`a`a`a`a.M`F`F`F`F`F`F`F`F`F`F`F`F`F`i`a`a`a`a`a`a`a`P`j`F`F`F`1``````.l```````````````q",
".h``````.l``.l```````````8`F`F`F`F`0`a`a`a`a`a`a`o`F`F`F`5`m.T.T.T.a.T.j`F`F.N.m`a`a`a`a`a`a.M`F`F`F`F.v.l``````.l``````````.l.V",
"`8``.l````````````````.l.l.K`F`F`F.E`a`a`a`a`a`a.M`F`F`F.E`a`a`a`a`a`a..`F`F`F`0`a`a`a`a`a`a.n`F`F`F.j`q```````````````````````8",
".p````````.l````````````.l.Q`F`F`F`u`a`a`a`a`a`a`o`F`F`F.q`t`t`t`t`t.y`H`F`F`F.M`a`a`a`a`a`a..`F`F`F`r````````.l```````````````C",
"`Y``````````.l``````````.l.b`F`F`F.T`a`a`a`a`a`a.M`F`F`F`F`F`F`F`F`F`F`F`F`F`m`a`a`a`a`a`a`a`m`F`F`F.```````````.l`````````````v",
"`2``.l````.l````````````.l`v`F`F`F`F.M`a`a`a`a`a.u`F`F`F`F`F`F`F`F`F`F`F`F`X.M`a`a`a`a`a`a.m`j`F`F`F`Y``````.l``````````````.l`2",
"`w`````````````````````````q.j`F`F`F`U`a`a`a`a`a`o`F`F`F`F`F`F`F`F`F`F`F`T.u`a`a`a`a`a`a`a.f`F`F`F`F`q````````````````````````.`",
".x.l``````.l``````````````.l.b`F`F`F`F.M`a`a`a`a`a.c`0.c.c`0.c.c`0.c`0`P`a`a`a`a`a`a`a`a.m`j`F`F`F.`````````.l``````````````.l`s",
"`F.O````````.l````````````.l.V`F`F`F`F`H`a`a`a`a`a`a`a`a`a`a`a`a`a`a`a`a`a`a`a`a`a`a`a`a`m`F`F`F`F`V``````````.l`````````````8.j",
"`F`2````.l````````````````.l```Z`F`F`F`F.z`a`a`a`a`a`a`a`a`a`a`a`a`a`a`a`a`a`a`a`a`a`a.R`j`F`F`F.```.l````.l``````````````.l`l`F",
"`F.d.l``````````````````````.l.l.j`F`F`F`F.R`a`a`a`a`a`a`a`a`a`a`a`a`a`a`a`a`a`a`a`a`i`F`F`F`F.j.L````````````.l````````````.d.j",
"`F`F`1````.l````````````````.l```C`F`F`F`F`F.f`a`a`a`a`a`a`a`a`a`a`a`a`a`a`a`a`a`a`E`j`F`F`F`F`S``.l````````.l`````````````8.j`F",
"`F`F.s``````.l`````````````````````l`F`F`F`F`F`m`0`a`a`a`a`a`a`a`a`a`a`a`a`a`a.M.F`j`F`F`F`F.S````````````````````````````.b`F`F",
"`F`F`F`q``````````````````````.l`````G`F`F`F`F`F`F.q`B`a`a`a`a`a`a`a`a`a`a.u`U`j`F`F`F`F`F`2``.l````````.l``.l```````````q.j.j`F",
"`F`F`F.``8`8`1`1`8`1`8`1`8`1`8`1`8`1`q`y`F`F`F`F`F`F`F`K`u.E.G.M.u`0.E`u`K`F`F`F`F`F`F`F`l``````````````````````````````.D.j`F`F",
"`F`F`F`F`F`F.j.j`F.j`F.j`F.j`F.j`F`F.j`s`F`F`F`F`F`F`F`F`F`F`F`F`j`F`F`F`F`F`F`F`F`F`s.p````.l````````.l``.l```````````q.j`F`F`F",
"`F`F`F`F`F`F`F`F`F`F`F`F`F`F`F`F`F`F`F`F`F`F`F`F`F`F`F`F`F`F`F`F`F`F`F`F`F`F`F`F`F.D`M``.l`````````````````````````````w.j`F`F`F",
"`F`F`F`F`F`F`F`F`F`F`F`F`F`F`F`F`F`F`F`F`F`F`F`F`F`F`F`F`F`F`F`F`F`F`F`F`F`F`s.D.r````````````````.l``.l`````````````S.j`F`F`F`F",
"`F`F`F`F`F`F.K`L`F`F`F`F`F`F`F`F`F`F`F`F`F`F`F`F`F`F`F`F`F`F`F`F`F.j.U`f`N`D.l````.l``.l````````````````.l`````````q.e`F`F`F`F`F",
"`F`F`F`F`F`F`#```g`g`8`g.r`8`g.r`8`g.r`8`g.r`8`g.r`8`g.r`8`g.r`8`g`q````````````.l``````````````.l``.l`````````````f.j`F`F`F`F`F",
"`F`F`F`F`F`F`F`2``.l````````.l````.l````.l````.l````.l````.l``````````.l``.l``````````````````.l````````````````.D.j`F`F`F`F`F`F",
"`F`F`F`F`F`F`F`F.S````.l````````````````````````````````````````.l````````````````````````.l``````.l``.l```````l.j`F`F`F`F`F`F`F",
"`F`F`F`F`F`F`F`F`F.#``````````````````````````````````````````````````````````````````````````.l`````````````l.j`F`F`F`F`F`F`F`F",
"`F`F`F`F`F`F`F`F`F`F`2``````````````````````````````````````````````````````````.l``.l``.l````````.l```````l.j`F`F`F`F`F`F`F`F`F",
"`F`F`F`F`F`F`F`F`F`F`F`Z``````.l````.l````.l````.l````.l````.l````.l````.l``.l````````````.l``.l````````.D.j`F`F`F`F`F`F`F`F`F`F",
"`F`F`F`F`F`F`F`F`F`F`F`F.Q`8.l````````.l````.l````.l````.l````.l````.l````````.l``.l``.l````````````.V`3.j`F`F`F`F`F`F`F`F`F`F`F",
"`F`F`F`F`F`F`F`F`F`F`F`F`F.j`G````.l````````````````````````````````````.l`````````````````````````Y.K`F`F`F`F`F`F`F`F`F`F`F`F`F",
"`F`F`F`F`F`F`F`F`F`F`F`F`F`F`F`f`C````.l``.l``.l``.l``.l``.l``.l``.l``````.l``.l``.l```````````C`f.j`F`F`F`F`F`F`F`F`F`F`F`F`F`F",
"`F`F`F`F`F`F`F`F`F`F`F`F`F`F`F`F`F`w`C``````````````````````````````.l`````````````````````1.`.j.j`F`F`F`F`F`F`F`F`F`F`F`F`F`F`F",
"`F`F`F`F`F`F`F`F`F`F`F`F`F`F`F`F`F`F.j`f`v`q``.l````.l````.l````````````````````````.l`v`f.j`F`F`F`F`F`F`F`F`F`F`F`F`F`F`F`F`F`F",
"`F`F`F`F`F`F`F`F`F`F`F`F`F`F`F`F`F`F`F`F.j`5.b`Y.V.l``````````````````````````.V`Y.b.e.j.j`F`F`F`F`F`F`F`F`F`F`F`F`F`F`F`F`F`F`F",
"`F`F`F`F`F`F`F`F`F`F`F`F`F`F`F`F`F`F`F`F`F`F`F`F.j.d.``l`S`1`1`8`8`8`C`S`l.`.d.j.j`F`F`F`F`F`F`F`F`F`F`F`F`F`F`F`F`F`F`F`F`F`F`F"
};
