/* XPM */
static char *bitcoin16_xpm[] = {
/* width height num_colors chars_per_pixel */
"    16    16      256            2",
/* colors */
"`` c #ffffff",
"`. c #e1dfed",
"`# c #a19ac6",
"`a c #766dac",
"`b c #5d539d",
"`c c #766cac",
"`d c #a19bc6",
"`e c #4e4294",
"`f c #4f4294",
"`g c #504393",
"`h c #4f4293",
"`i c #9d96c3",
"`j c #867eb5",
"`k c #534490",
"`l c #443e9c",
"`m c #2931b2",
"`n c #2930b2",
"`o c #3838a6",
"`p c #4d4295",
"`q c #504392",
"`r c #746aab",
"`s c #eeedf4",
"`t c #524491",
"`u c #483f99",
"`v c #3d47be",
"`w c #bebbda",
"`x c #ebe2df",
"`y c #eee6e2",
"`z c #ebe7eb",
"`A c #cdcde9",
"`B c #c8c6e2",
"`C c #dbd8e8",
"`D c #c0bcd9",
"`E c #f6f6f9",
"`F c #7d78b5",
"`G c #fae3ca",
"`H c #ffc46b",
"`I c #ffc568",
"`J c #ffe6c2",
"`K c #bbbadf",
"`L c #8982bb",
"`M c #8c84b9",
"`N c #e3e2ee",
"`O c #958ebf",
"`P c #3c47bf",
"`Q c #ffcf74",
"`R c #fd8911",
"`S c #ed821f",
"`T c #f48617",
"`U c #ffc362",
"`V c #faf7f7",
"`W c #2932b1",
"`X c #948cbe",
"`Y c #6a60a5",
"`Z c #453e9c",
"`0 c #c9c8e1",
"`1 c #fae1c6",
"`2 c #fb8911",
"`3 c #f7c89a",
"`4 c #fad6b3",
"`5 c #f9d2ac",
"`6 c #f3ae6b",
"`7 c #ff8d0b",
"`8 c #f9e3ce",
".` c #c8c7e4",
".. c #494097",
".# c #5a4f9b",
".a c #2731b4",
".b c #f4eeeb",
".c c #ffbd55",
".d c #ec8220",
".e c #fceddd",
".f c #fce8d4",
".g c #fceedf",
".h c #fce8d3",
".i c #fa8815",
".j c #f4af66",
".k c #e9e9f3",
".l c #413c9f",
".m c #594e9b",
".n c #f3edeb",
".o c #ffbc54",
".p c #fcedde",
".q c #f4af65",
".r c #c9c8e2",
".s c #fee3c3",
".t c #ff8f09",
".u c #f7c99e",
".v c #fad8b6",
".w c #f9d3ae",
".x c #f2af70",
".y c #ff9203",
".z c #fbe2c8",
".A c #c8c7e5",
".B c #695fa4",
".C c #3337ab",
".D c #f9f8fa",
".E c #fab867",
".F c #ff8d0d",
".G c #fe8b10",
".H c #fa8914",
".I c #ff9401",
".J c #ffc26e",
".K c #4f51b3",
".L c #514492",
".M c #938cbd",
".N c #e3e1ee",
".O c #8a82b8",
".P c #9992c1",
".Q c #8c82b4",
".R c #abb2ea",
".S c #fde2b9",
".T c #efb076",
".U c #f7b772",
".V c #f2e1d2",
".W c #676fcb",
".X c #54458f",
".Y c #dfddec",
".Z c #f5f4f9",
".0 c #c4c0db",
".1 c #dfdceb",
".2 c #cecae1",
".3 c #d7d4e6",
".4 c #ebeaf2",
".5 c #e3e2f0",
".6 c #dfddeb",
".7 c #bcbce2",
".8 c #4b4fb6",
"#` c #56458e",
"#. c #9a93c2",
"## c #4a4098",
"#a c #433d9d",
"#b c #443e9b",
"#c c #423d9d",
"#d c #4b4196",
"#e c #837bb4",
"#f c #9f98c5",
"#g c #e0deec",
"#h c #9e97c4",
"#i c #736aaa",
"#j c #5b509c",
"#k c #000000",
"#l c #000000",
"#m c #000000",
"#n c #000000",
"#o c #000000",
"#p c #000000",
"#q c #000000",
"#r c #000000",
"#s c #000000",
"#t c #000000",
"#u c #000000",
"#v c #000000",
"#w c #000000",
"#x c #000000",
"#y c #000000",
"#z c #000000",
"#A c #000000",
"#B c #000000",
"#C c #000000",
"#D c #000000",
"#E c #000000",
"#F c #000000",
"#G c #000000",
"#H c #000000",
"#I c #000000",
"#J c #000000",
"#K c #000000",
"#L c #000000",
"#M c #000000",
"#N c #000000",
"#O c #000000",
"#P c #000000",
"#Q c #000000",
"#R c #000000",
"#S c #000000",
"#T c #000000",
"#U c #000000",
"#V c #000000",
"#W c #000000",
"#X c #000000",
"#Y c #000000",
"#Z c #000000",
"#0 c #000000",
"#1 c #000000",
"#2 c #000000",
"#3 c #000000",
"#4 c #000000",
"#5 c #000000",
"#6 c #000000",
"#7 c #000000",
"#8 c #000000",
"a` c #000000",
"a. c #000000",
"a# c #000000",
"aa c #000000",
"ab c #000000",
"ac c #000000",
"ad c #000000",
"ae c #000000",
"af c #000000",
"ag c #000000",
"ah c #000000",
"ai c #000000",
"aj c #000000",
"ak c #000000",
"al c #000000",
"am c #000000",
"an c #000000",
"ao c #000000",
"ap c #000000",
"aq c #000000",
"ar c #000000",
"as c #000000",
"at c #000000",
"au c #000000",
"av c #000000",
"aw c #000000",
"ax c #000000",
"ay c #000000",
"az c #000000",
"aA c #000000",
"aB c #000000",
"aC c #000000",
"aD c #000000",
"aE c #000000",
"aF c #000000",
"aG c #000000",
"aH c #000000",
"aI c #000000",
"aJ c #000000",
"aK c #000000",
"aL c #000000",
"aM c #000000",
"aN c #000000",
"aO c #000000",
"aP c #000000",
"aQ c #000000",
"aR c #000000",
"aS c #000000",
"aT c #000000",
"aU c #000000",
"aV c #000000",
"aW c #000000",
"aX c #000000",
"aY c #000000",
"aZ c #000000",
"a0 c #000000",
"a1 c #000000",
"a2 c #000000",
"a3 c #000000",
"a4 c #000000",
"a5 c #000000",
"a6 c #000000",
"a7 c #000000",
"a8 c #000000",
/* pixels */
"`````````.`#`a`b`b`c`#`.````````",
"```````d`e`e`f`g`g`h`e`e`i``````",
"`````j`e`f`k`l`m`n`o`p`q`e`r`s``",
"```i`e`t`u`v`w`x`y`z`A`B`C`D`E``",
"`.`e`e`u`F```G`H`I`J```K`L`i`M`N",
"`O`e`k`P```Q`R`S`S`T`U`V`W`q`e`X",
"`Y`h`Z`0`1`2`3`4`5`6`7`8.`..`e`Y",
".#`g.a.b.c.d.e.f.g.h.i.j.k.l`g.m",
".m`g.a.n.o.d.e.h.p.h.i.q.k.l`g.m",
"`Y`h`l.r.s.t.u.v.w.x.y.z.A..`e.B",
"`X`e`k.C.D.E.F.G.H.I.J``.K.L`e.M",
".N.O.P.Q.R``.S.T.U.V``.W.X`e`e.Y",
"``.Z.0.1.2.3.4.5.6.7.8#``e`e#.``",
"```s`r`e`q###a#b#c#d`t`e`e#e````",
"``````.P`e`e`e`h`f`e`e`e#f``````",
"````````#g#h#i#j#j#i#h.Y````````"
};
